<svg id="Group_1200" data-name="Group 1200" xmlns="http://www.w3.org/2000/svg" xmlns:xlink="http://www.w3.org/1999/xlink" width="115" height="92.462" viewBox="0 0 115 92.462">
  <defs>
    <clipPath id="clip-path">
      <rect id="Rectangle_699" data-name="Rectangle 699" width="115" height="92.462" fill="none"/>
    </clipPath>
  </defs>
  <g id="Group_1199" data-name="Group 1199" clip-path="url(#clip-path)">
    <path id="Path_24123" data-name="Path 24123" d="M55.652,15.642v.513c0,2.478-1.326,4.563-4.067,4.563a2.377,2.377,0,0,1-2.623-2.447c0-2,1.777-2.629,3.466-2.629Zm0,7.139h3.1v-9.4c0-4.455-1.685-5.992-6.063-5.992-2.783,0-5.973.722-6.185,4.082h3.1c0-1.487,1.632-1.731,3.236-1.731,2.572,0,2.814,1.277,2.814,3.007v.546H52.838c-3.3,0-6.975,1.176-6.975,5.1,0,3.079,2.5,4.678,5.42,4.678a6.39,6.39,0,0,0,4.368-1.718Z" transform="translate(-14.685 -2.366)" fill="#005ead"/>
    <path id="Path_24124" data-name="Path 24124" d="M83.452,11.433c-.061-1.36-1.625-1.694-2.557-1.694-1.113,0-2.855.272-2.855,1.816,0,1.3.84,1.725,1.994,1.935,3.048.6,7.2,1.028,7.2,5.11,0,3.655-3.944,4.469-6.871,4.469-2.81,0-5.968-.934-5.968-4.286h3.1c.059,1.785,1.935,1.935,2.927,1.935,1.3,0,3.714-.363,3.714-2.118,0-1.54-1.239-1.783-2.477-2a21.216,21.216,0,0,1-4.5-1.27,3.742,3.742,0,0,1-2.226-3.629c0-3.534,3.581-4.318,5.954-4.318,2.767,0,5.656,1.175,5.656,3.59v.455Z" transform="translate(-23.822 -2.366)" fill="#005ead"/>
    <path id="Path_24125" data-name="Path 24125" d="M105.809,20.417h-3.1V2.849H97.2V.006H111.32V2.849h-5.51Z" transform="translate(-31.122 -0.002)" fill="#005ead"/>
    <path id="Path_24126" data-name="Path 24126" d="M125.187,13.241a3.592,3.592,0,0,1,3.774-3.256,3.247,3.247,0,0,1,3.508,3.256Zm10.38,2.6V14.9c0-4.405-1.836-7.515-6.544-7.515-4.738,0-6.934,3.443-6.934,7.938,0,4.723,2.556,7.744,7.321,7.744,2.339,0,5.435-.784,5.586-3.658h-3.066c-.33.969-1.468,1.06-2.366,1.06a4.131,4.131,0,0,1-4.376-4.634Z" transform="translate(-39.092 -2.366)" fill="#005ead"/>
    <path id="Path_24127" data-name="Path 24127" d="M160.274,11.737c-.062-1.086-1.3-1.752-2.447-1.752-3.02,0-3.653,2.66-3.653,5.139,0,2.387.572,5.348,3.5,5.348a2.508,2.508,0,0,0,2.6-2.3h3.1c0,3.2-3.1,4.9-5.909,4.9-4.464,0-6.389-3.836-6.389-7.916,0-4.05,2.256-7.767,6.659-7.767,2.809,0,5.188,1.39,5.638,4.35Z" transform="translate(-48.374 -2.365)" fill="#005ead"/>
    <rect id="Rectangle_693" data-name="Rectangle 693" width="3.101" height="6.638" transform="translate(10.553 13.777)" fill="#005ead"/>
    <path id="Path_24128" data-name="Path 24128" d="M25.146,0,22.76,7.853H22.7L20.315,0H15.523V10.634h3.1V3.394h.057l2.81,10.392h2.478L26.778,3.394h.06V20.416h3.1V0Z" transform="translate(-4.97 0)" fill="#005ead"/>
    <rect id="Rectangle_694" data-name="Rectangle 694" width="3.141" height="3.142" transform="translate(7.419 10.635)" fill="#005ead"/>
    <rect id="Rectangle_695" data-name="Rectangle 695" width="3.143" height="3.143" transform="translate(3.712 6.9)" fill="#005ead"/>
    <rect id="Rectangle_696" data-name="Rectangle 696" width="3.139" height="3.142" transform="translate(3.708 14.348)" fill="#005ead"/>
    <rect id="Rectangle_697" data-name="Rectangle 697" width="3.139" height="3.141" transform="translate(0 10.614)" fill="#005ead"/>
    <rect id="Rectangle_698" data-name="Rectangle 698" width="12.227" height="12.237" transform="translate(22.408 54.096)" fill="#005ead"/>
    <path id="Path_24129" data-name="Path 24129" d="M27.26,67.3V52.148h26.5V41.25h-38.7V67.3Z" transform="translate(-4.821 -13.208)" fill="#005ead"/>
    <path id="Path_24130" data-name="Path 24130" d="M27.26,112.851l-12.2-15.276V123.7H54.911V112.851Z" transform="translate(-4.821 -31.243)" fill="#005ead"/>
    <path id="Path_24131" data-name="Path 24131" d="M100.19,105.67l-21.6-64.42H91.821l15.3,47.677,14.8-47.677h12.946l-21.646,64.42Z" transform="translate(-25.163 -13.208)" fill="#005ead"/>
  </g>
</svg>
