<svg width="80" height="24" xmlns="http://www.w3.org/2000/svg">
  <g fill="none" fill-rule="evenodd">
    <path fill="#035496"
      d="M.34 22.882h4.42V6.247H.34zM21.816 22.882h-4.42V12.834c0-1.166-.18-1.988-.535-2.469-.44-.56-1.22-.841-2.349-.841-2.28 0-3.42 1.278-3.42 3.84v9.518H6.677V6.247h4.23v1.56c0 .605.014.906.032.906 0-.022.009-.032.03-.032a5.414 5.414 0 012.242-2.137 6.55 6.55 0 013.09-.766c2.213 0 3.824.867 4.826 2.59.463.833.69 1.83.69 2.998v11.516zM38.368 12.209h-4.42c-.148-.854-.494-1.524-1.035-2.014a2.725 2.725 0 00-1.881-.733c-1.171 0-2.08.54-2.728 1.621-.52.917-.784 1.989-.784 3.215 0 3.58 1.096 5.39 3.292 5.432.773 0 1.457-.254 2.054-.765.595-.511.934-1.211 1.02-2.107h4.449c-.249 1.957-1.09 3.533-2.522 4.728-1.43 1.197-3.151 1.805-5.157 1.826-2.509 0-4.432-.81-5.77-2.433-1.257-1.52-1.881-3.547-1.881-6.087 0-2.705.606-4.848 1.82-6.428 1.357-1.77 3.356-2.653 5.987-2.653 2.089 0 3.813.54 5.174 1.622 1.462 1.166 2.257 2.758 2.382 4.776zM48.953 9.4h-2.854v13.483h-4.357V9.4h-2.447V6.247h2.447c0-4.035 2.36-6.055 7.087-6.055v3.56c-1.11 0-1.843.176-2.194.53-.361.352-.536 1.008-.536 1.965h2.854v3.154zM50.786 22.882h4.419V6.247h-4.419zM57.182 22.882h4.42V.442h-4.42zM79.393 15.735H67.89c.105 1.373.544 2.434 1.318 3.183.668.626 1.482.935 2.446.935.707 0 1.348-.166 1.912-.498.563-.331.93-.78 1.096-1.34h4.513c-.499 1.683-1.398 2.989-2.694 3.916-1.297.926-2.833 1.388-4.612 1.388-5.578 0-8.367-3.028-8.367-9.083 0-2.558.706-4.602 2.118-6.133 1.408-1.53 3.39-2.292 5.94-2.292 5.224 0 7.834 3.306 7.834 9.924zm-4.514-2.776c-.102-1.116-.485-1.993-1.142-2.632-.661-.639-1.418-.958-2.274-.958-.836 0-1.558.298-2.162.897-.67.64-1.09 1.536-1.255 2.693h6.833z"></path>
    <path
      d="M55.32 2.343a2.262 2.262 0 01-2.27 2.259 2.264 2.264 0 01-2.267-2.26A2.262 2.262 0 0153.05.086a2.261 2.261 0 012.27 2.258zM4.708 2.343a2.263 2.263 0 01-2.27 2.259 2.264 2.264 0 01-2.266-2.26A2.262 2.262 0 012.439.086a2.262 2.262 0 012.269 2.258z"
      fill="#ED5726"></path>
  </g>
</svg>